 <svg  version="1.0" xmlns="http://www.w3.org/2000/svg"  width="300.000000pt" height="278.000000pt" viewBox="0 0 300.000000 278.000000"  preserveAspectRatio="xMidYMid meet">  <g transform="translate(0.000000,278.000000) scale(0.050000,-0.050000)" fill="#54ba6c" stroke="none"> <path d="M2740 5360 c-694 -66 -1321 -578 -1482 -1210 -203 -796 10 -1549 562 -1984 61 -48 122 -97 136 -108 226 -183 809 -274 1257 -196 l127 22 0 515 0 516 -135 -38 c-314 -87 -621 -26 -788 156 -394 429 -235 1141 291 1297 166 50 472 28 546 -39 13 -11 58 -46 101 -77 244 -176 269 -320 261 -1504 l-6 -940 -47 -96 c-214 -435 -929 -541 -1788 -266 l-95 30 0 -515 0 -515 179 -44 c98 -25 213 -49 255 -54 42 -5 146 -18 232 -30 1269 -165 2106 338 2297 1380 44 241 39 2054 -7 2270 -150 713 -591 1217 -1196 1367 -152 38 -226 49 -480 71 -38 3 -137 -1 -220 -8z"/> </g> </svg> 